<mxfile host="app.diagrams.net" modified="2023-12-31T17:08:26.343Z" agent="Mozilla/5.0 (X11; Linux x86_64) AppleWebKit/537.36 (KHTML, like Gecko) Chrome/119.0.0.0 Safari/537.36" version="22.1.16" etag="7pXi2yD5jzHR4FsCVDOh" type="github">
  <diagram name="Page-1" id="jW0-YC4BkA0qCGOLDqmK">
    <mxGraphModel>
      <root>
        <mxCell id="0" />
        <mxCell id="1" parent="0" />
      </root>
    </mxGraphModel>
  </diagram>
</mxfile>
